<?xml version="1.0" encoding="utf-8"?>
<svg version="1.1" id="Слой_1" xmlns="http://www.w3.org/2000/svg" xmlns:xlink="http://www.w3.org/1999/xlink" x="0px" y="0px"
	 viewBox="0 0 22 19" style="enable-background:new 0 0 22 19;" xml:space="preserve">
<path fill="none" d="M21.5,5.4c0,1.3-0.5,2.4-1.4,3.3l-9.1,9l-9.1-9C1,7.8,0.5,6.6,0.5,5.4C0.5,4.1,1,3,1.9,2.1C2.8,1.1,4,0.7,5.2,0.7
	c1.2,0,2.4,0.5,3.4,1.4L11,4.4l2.4-2.3c1.8-1.8,4.9-1.8,6.7,0C21,2.9,21.5,4.1,21.5,5.4z"/>
<path d="M20.3,1.7c-2.3-2.2-6-2.2-8.2,0L11,2.8L9.9,1.7c-2.3-2.3-6-2.3-8.2,0C0.6,2.8,0,4.2,0,5.7c0,1.5,0.6,3,1.7,4.1L11,19
	l9.3-9.2C22.6,7.5,22.6,3.9,20.3,1.7z M19.2,8.7L11,16.9L2.7,8.8c-0.8-0.8-1.3-1.9-1.3-3c0-1.1,0.5-2.2,1.3-3c0.9-0.8,2-1.3,3.1-1.3
	c1.1,0,2.2,0.4,3,1.3L11,4.8l2.2-2.1c1.7-1.7,4.4-1.7,6.1,0c0.8,0.8,1.3,1.9,1.3,3C20.5,6.9,20.1,7.9,19.2,8.7z"/>
</svg>
